<?xml version="1.0" standalone="no"?>
<!DOCTYPE svg PUBLIC "-//W3C//DTD SVG 20010904//EN"
 "http://www.w3.org/TR/2001/REC-SVG-20010904/DTD/svg10.dtd">
<svg version="1.0" xmlns="http://www.w3.org/2000/svg"
 width="468pt" height="249pt" viewBox="0 0 468 249"
 preserveAspectRatio="xMidYMid meet">
<metadata>
Created by POTRACE VERSION, written by Peter Selinger 2001-2007
</metadata>
<g transform="translate(0,249) scale(0.078000,-0.078000)"
fill="#000000" stroke="none">
<path d="M1575 3034 c-22 -2 -89 -9 -150 -14 -60 -6 -166 -20 -235 -31 -69
-12 -168 -32 -220 -46 -52 -13 -108 -28 -125 -33 -16 -4 -78 -24 -136 -43 -58
-20 -148 -52 -200 -72 -52 -20 -132 -55 -178 -77 -54 -26 -102 -58 -132 -88
-27 -27 -51 -60 -55 -74 -4 -17 0 -35 10 -51 9 -14 34 -34 56 -45 21 -11 48
-20 58 -20 10 0 22 3 25 6 3 4 2 15 -3 24 -5 10 -23 23 -40 28 -22 8 -30 17
-30 35 0 13 14 36 33 54 17 17 55 45 84 62 29 16 89 46 135 65 46 19 126 50
178 69 52 19 133 46 180 60 47 14 112 33 145 41 33 8 92 22 131 30 40 8 133
24 208 36 75 11 212 23 304 26 100 4 216 2 290 -5 67 -6 144 -16 170 -22 26
-7 82 -23 124 -36 42 -13 95 -37 117 -54 30 -21 41 -36 41 -55 0 -14 -6 -37
-14 -52 -8 -15 -39 -51 -69 -79 -30 -29 -87 -73 -127 -99 -40 -25 -123 -70
-184 -99 -61 -29 -147 -66 -191 -83 -44 -17 -163 -56 -265 -86 -102 -30 -238
-68 -304 -85 -65 -17 -124 -31 -132 -31 -8 0 -14 8 -14 18 0 10 13 75 29 145
16 69 34 143 40 164 7 21 19 62 29 91 l17 54 -25 20 c-24 19 -25 19 -40 1 -8
-11 -30 -80 -48 -154 -18 -74 -43 -186 -55 -249 -20 -101 -25 -116 -47 -127
-14 -7 -153 -54 -310 -104 -157 -50 -314 -107 -350 -126 -36 -19 -73 -44 -82
-56 -10 -12 -18 -30 -18 -39 0 -10 12 -32 28 -49 23 -26 37 -32 97 -40 39 -5
162 -13 275 -19 113 -5 229 -14 258 -19 29 -4 55 -11 59 -14 3 -4 -2 -98 -11
-209 -9 -112 -23 -268 -31 -348 -8 -80 -15 -171 -15 -203 0 -36 -6 -69 -16
-86 -9 -14 -34 -37 -57 -50 -23 -13 -85 -56 -137 -95 -52 -39 -138 -114 -191
-166 -53 -53 -123 -132 -156 -176 -32 -44 -65 -94 -72 -112 -11 -25 -10 -35 1
-58 7 -16 28 -39 47 -51 25 -17 48 -23 91 -23 34 0 109 14 186 35 71 19 156
45 189 56 33 12 110 39 170 61 61 22 144 53 185 70 41 17 108 46 148 64 40 19
76 34 79 34 3 0 62 29 131 64 70 35 152 77 182 93 30 17 100 57 155 90 55 33
170 104 255 158 85 54 189 120 230 148 41 27 107 75 147 105 55 41 78 53 95
49 13 -4 38 -25 56 -48 27 -35 32 -51 32 -94 0 -38 -8 -69 -31 -114 -17 -34
-70 -115 -117 -179 -47 -64 -96 -137 -109 -161 -13 -26 -23 -61 -23 -86 0 -28
7 -51 21 -69 11 -14 34 -33 49 -41 16 -8 52 -15 80 -15 28 0 86 7 128 15 42 9
88 19 102 24 14 4 52 16 85 26 33 10 101 32 150 50 50 18 137 52 195 75 57 24
111 46 120 51 8 5 102 51 208 104 106 52 223 111 260 132 37 20 97 56 134 80
37 23 101 75 142 114 51 48 85 91 106 132 24 48 30 73 30 123 0 46 -7 79 -25
120 -14 32 -42 78 -62 102 -20 25 -64 65 -97 89 -33 24 -101 64 -151 87 -49
24 -117 52 -150 64 -33 11 -85 27 -115 37 -30 9 -106 28 -170 41 -63 14 -169
33 -235 44 -66 10 -174 25 -240 34 -66 9 -169 20 -230 26 -60 5 -193 17 -295
25 -102 9 -246 22 -320 30 -74 8 -187 19 -250 25 -63 6 -125 13 -137 16 -13 2
-23 8 -23 14 0 5 33 15 73 24 39 8 140 29 222 46 83 17 170 35 195 40 25 5 77
16 115 24 39 8 131 26 205 40 74 14 191 35 260 46 69 11 190 31 270 45 80 13
179 29 220 36 41 6 102 15 135 20 33 4 121 16 195 27 74 12 200 30 280 41 80
11 185 25 235 31 49 6 198 20 330 32 191 16 359 21 823 25 l583 5 -3 22 -3 21
-500 3 c-285 2 -582 -2 -690 -8 -104 -6 -269 -20 -365 -31 -96 -10 -211 -24
-255 -29 -44 -6 -123 -15 -175 -20 -52 -6 -144 -18 -205 -26 -60 -8 -157 -22
-215 -30 -58 -8 -161 -24 -230 -36 -69 -11 -150 -24 -180 -28 -30 -5 -134 -22
-230 -39 -96 -16 -215 -37 -265 -46 -49 -9 -112 -20 -140 -25 -27 -5 -151 -29
-275 -54 -124 -25 -290 -60 -370 -77 -80 -17 -162 -34 -184 -39 -21 -4 -42
-14 -47 -21 -5 -8 -9 -17 -9 -20 0 -3 8 -13 18 -21 9 -9 46 -21 82 -27 36 -7
117 -19 180 -26 63 -8 135 -15 160 -15 25 0 52 -4 60 -10 8 -5 12 -12 9 -15
-4 -3 -57 -14 -120 -24 -63 -11 -152 -29 -198 -41 -47 -12 -119 -33 -160 -46
-42 -14 -108 -41 -148 -60 -39 -19 -83 -34 -98 -34 -15 0 -54 7 -88 15 -34 8
-79 17 -100 20 -21 4 -41 13 -44 22 -3 9 4 86 17 172 12 86 26 163 31 172 4 9
21 21 36 27 15 6 82 25 148 43 66 17 176 47 245 66 69 19 172 49 230 68 58 18
141 49 185 68 44 19 123 55 175 81 52 26 132 72 178 102 48 33 103 80 132 115
43 52 50 66 50 104 0 30 -8 55 -25 80 -13 20 -35 45 -49 56 -14 11 -54 33 -90
50 -36 17 -119 42 -183 55 -91 19 -157 26 -288 28 -93 2 -188 2 -210 0z m-609
-1001 c-4 -27 -12 -95 -19 -153 -7 -58 -16 -111 -21 -119 -7 -10 -23 -12 -70
-7 -33 4 -171 13 -306 20 -135 8 -253 17 -262 21 -10 4 -18 13 -18 20 0 6 8
19 18 27 9 8 35 24 57 35 22 11 72 30 110 43 39 13 120 40 180 61 61 20 151
50 200 67 50 16 101 30 114 31 23 1 23 -1 17 -46z m1519 -202 c55 -11 127 -30
160 -41 33 -12 74 -29 90 -38 17 -9 45 -30 63 -46 25 -23 32 -38 32 -66 0 -23
-13 -58 -37 -99 -21 -35 -66 -96 -100 -136 -34 -40 -91 -98 -128 -129 -36 -31
-71 -56 -77 -56 -5 0 -23 7 -39 15 -16 8 -41 21 -56 29 -16 8 -62 24 -103 36
-41 13 -106 29 -145 37 -38 8 -110 20 -160 28 -49 8 -166 19 -260 25 -93 6
-179 15 -190 19 -12 5 -25 25 -32 52 -7 24 -31 66 -53 94 -23 27 -55 57 -71
67 -16 10 -29 22 -29 28 0 5 13 16 28 24 16 8 84 33 151 55 68 23 191 54 274
71 84 17 186 34 227 39 41 5 138 9 215 10 102 1 167 -4 240 -18z m450 -17 c61
-8 153 -21 205 -30 52 -8 138 -24 190 -36 52 -11 111 -24 130 -29 19 -4 60
-15 90 -23 30 -8 77 -22 103 -30 27 -9 90 -35 140 -59 51 -24 120 -65 154 -90
36 -27 78 -71 100 -103 34 -51 37 -62 37 -123 0 -49 -6 -79 -24 -116 -13 -29
-56 -82 -99 -126 -42 -41 -101 -91 -131 -111 -30 -19 -71 -44 -90 -56 -20 -12
-127 -66 -238 -122 -112 -55 -258 -124 -325 -154 -67 -30 -187 -77 -267 -106
-79 -28 -197 -65 -261 -81 -65 -16 -144 -29 -176 -29 -33 0 -64 5 -71 12 -7 7
-12 22 -12 35 0 12 14 46 32 75 17 29 55 85 83 123 29 39 70 97 93 130 22 33
47 82 56 108 9 26 16 71 16 100 0 34 -7 66 -21 92 -12 22 -37 57 -57 78 l-37
38 82 79 c45 44 105 107 134 142 29 35 65 90 81 123 16 34 28 77 28 99 0 22
-9 54 -22 75 -12 20 -32 44 -43 53 -11 9 -39 26 -62 38 -24 12 -43 28 -43 37
0 13 9 14 58 9 31 -4 107 -14 167 -22z m-1851 -148 c33 -7 61 -17 64 -24 2 -6
-17 -31 -42 -55 -38 -36 -46 -50 -46 -80 0 -20 9 -51 20 -70 15 -25 35 -41 73
-55 29 -11 68 -23 87 -26 19 -3 65 -6 102 -7 37 -1 75 -7 85 -14 15 -11 13
-17 -21 -64 -21 -28 -77 -84 -124 -124 -48 -40 -107 -88 -132 -108 -25 -19
-82 -61 -127 -92 -44 -31 -89 -57 -98 -57 -16 0 -17 9 -11 93 4 50 11 124 16
162 6 39 15 135 21 215 6 80 13 179 17 220 4 41 11 81 15 88 5 6 16 12 25 11
9 0 44 -6 76 -13z m276 -91 c26 -19 56 -47 66 -63 11 -15 25 -40 32 -56 9 -21
9 -32 1 -42 -7 -9 -32 -14 -63 -14 -28 0 -91 5 -139 10 -49 6 -99 18 -113 26
-13 9 -24 25 -24 36 0 11 10 33 21 50 12 16 42 43 68 59 25 16 59 29 75 29 17
0 47 -14 76 -35z m370 -240 c69 -3 175 -13 235 -21 61 -9 157 -27 215 -40 58
-14 132 -34 165 -46 33 -11 68 -29 79 -38 18 -17 16 -20 -55 -73 -41 -30 -142
-99 -224 -154 -83 -55 -175 -115 -205 -135 -30 -19 -81 -52 -113 -72 -31 -20
-59 -36 -61 -36 -2 0 -43 -24 -92 -53 -49 -30 -138 -79 -199 -109 -60 -30
-141 -70 -180 -88 -38 -18 -106 -48 -150 -67 -44 -19 -116 -48 -160 -64 -44
-17 -141 -50 -215 -75 -74 -24 -148 -48 -165 -54 -16 -5 -68 -18 -115 -30 -47
-11 -104 -20 -128 -20 -24 0 -52 5 -63 10 -10 6 -19 17 -19 25 0 8 9 31 21 52
12 21 38 58 58 83 20 25 68 78 106 119 39 41 106 104 150 140 44 36 108 85
142 109 33 23 70 42 80 42 15 0 24 -14 39 -62 10 -34 27 -66 36 -72 13 -8 21
-7 30 2 9 9 7 26 -10 79 -12 38 -22 78 -22 90 0 16 13 31 43 49 23 14 76 49
117 77 41 28 118 82 170 120 52 39 125 100 161 137 39 39 77 90 92 123 15 30
32 58 39 60 7 3 27 4 43 2 17 -2 86 -7 155 -10z"/>
</g>
</svg>
