<?xml version="1.0" encoding="utf-8"?>
<!-- Generator: Adobe Illustrator 20.1.0, SVG Export Plug-In . SVG Version: 6.00 Build 0)  -->
<svg version="1.1" id="Layer_1" xmlns="http://www.w3.org/2000/svg" xmlns:xlink="http://www.w3.org/1999/xlink" x="0px" y="0px"
	 viewBox="0 0 500 500" style="enable-background:new 0 0 500 500;" xml:space="preserve">
<g>
	<g>
		<g>
			<g>
				<g>
					<path d="M249.8,209.2c0.1,0,0.2-0.1,0.3-0.1C249.8,209.2,249.8,209.2,249.8,209.2z"/>
					<path d="M257,233.7l-1.5-0.1C256.5,233.7,256.9,233.7,257,233.7z"/>
					<path d="M325.8,197.2c-0.1,0-0.1,0-0.2,0c1.2-0.1,2.8-0.3,5.4-0.7L325.8,197.2z"/>
					<path d="M255.9,313.8l-1,1.5C255.3,314.6,255.6,314.2,255.9,313.8z"/>
					<path d="M357.7,266.4c0.2,0.4,0.5,1.1,0.8,1.7C358.2,267.3,357.9,266.6,357.7,266.4z"/>
					<path d="M366.3,194.7l-2.2,0.1C364.2,194.9,365,194.8,366.3,194.7z"/>
					<path d="M444,190.7c-0.1,0-0.1,0-0.2,0C443.7,190.7,443.8,190.7,444,190.7z"/>
					<path d="M413.6,190.6c-0.7,0-1.4,0.1-2.2,0.1C412.3,190.7,413.5,190.6,413.6,190.6z"/>
					<path d="M410.4,190.8c0.3,0,0.7,0,1-0.1C410.8,190.7,410.4,190.8,410.4,190.8z"/>
					<path d="M102.4,184.9c-0.8,1.1-1.4,2.4-1.5,3.9c0,1.5,0.5,2.7,1.3,3.8c0,0-0.3-0.4-0.6-1.1c-0.3-0.7-0.7-1.7-0.6-2.9
						c0.1-1.1,0.5-2.1,0.8-2.7C102.2,185.2,102.4,184.9,102.4,184.9z"/>
					<path d="M263.2,238.3l-0.5-0.1C263.1,238.3,263.2,238.3,263.2,238.3z"/>
					<path d="M102.2,188.4c0,0-0.1,0.4-0.1,0.9c0,0.5,0.1,0.9,0.1,0.9C102.1,189.5,102.1,188.9,102.2,188.4z"/>
					<path d="M325.4,199.8c-2.2,0.4-6.8,0.9-6.7,1C321,200.5,324.4,200.1,325.4,199.8z"/>
					<path d="M261.4,276.8l-1.2,1C260.8,277.3,261.2,277,261.4,276.8z"/>
					<path d="M102.2,188.4c0,0,0.1-0.5,0.3-1c0.2-0.5,0.4-0.9,0.4-0.9c-0.1,0.1-0.2,0.3-0.3,0.5
						C102.4,187.4,102.3,187.9,102.2,188.4z"/>
					<path d="M131,318.8C130.9,318.8,130.9,318.8,131,318.8c-0.2,0.2-0.3,0.3-0.4,0.4L131,318.8z"/>
					<path d="M141.6,310.3c-0.7,0.6-1.4,1.2-2.2,1.9C140.6,311.2,141.2,310.7,141.6,310.3z"/>
					<path d="M102.2,192.6c0,0,0.7,1,1.6,1.6c0.9,0.7,2,1,2,1C104.3,194.6,103.1,193.7,102.2,192.6z"/>
					<path d="M119.8,237.8c0.5,0,0.9,0.1,1.4,0.1C120.6,237.9,120.1,237.8,119.8,237.8z"/>
					<path d="M352.1,258.5c-0.2-0.2-0.5-0.6-0.8-0.8C351.2,257.7,351.2,257.7,352.1,258.5z"/>
					<path d="M295.6,320.9L295.6,320.9L295.6,320.9C295.6,320.9,295.6,320.9,295.6,320.9z"/>
					<path d="M300.6,318.6c-1.6,0.7-3.8,1.7-4.9,2.4C297.2,320.2,298.7,319.6,300.6,318.6z"/>
					<path d="M284.7,325.2c0.2-0.1,0.4-0.1,0.6-0.2C285.1,325.1,284.9,325.2,284.7,325.2z"/>
					<path d="M357.7,259.1C357.7,259.1,357.7,259.1,357.7,259.1C357.7,259.1,357.7,259.1,357.7,259.1L357.7,259.1z"/>
					<path d="M360.7,281.3c-0.2,0.4-0.5,0.8-0.8,1.4C360.1,282.3,360.4,281.9,360.7,281.3z"/>
					<path d="M249.3,315.3C249.3,315.3,249.3,315.3,249.3,315.3C249.3,315.3,249.3,315.3,249.3,315.3
						C249.3,315.2,249.3,315.3,249.3,315.3z"/>
					<path d="M215.7,230.8c-5.2,0.8-10.7,2-16.3,3.4c-2.8,0.8-5.7,1.6-8.6,2.8c-1.5,0.6-2.9,1.3-4.1,1.9c-1.3,0.6-2.5,1.2-3.8,1.7
						c-1.3,0.5-2.7,1-4,1.4l-2.1,0.7c-0.8,0.3-1.6,0.6-2.3,0.9c-2.9,1.2-5.6,2.8-8.1,4.6c-0.6,0.4-1.2,0.9-1.8,1.4
						c-0.6,0.5-1.1,0.9-1.8,1.6c-1.3,1.3-2.4,3-2.8,5c-0.2,1-0.2,1.8-0.2,2.8c0.1,0.9,0.3,1.9,0.7,2.9c0.4,1,1.1,1.9,1.9,2.6
						c0.8,0.7,1.7,1.1,2.5,1.5c1.5,0.5,3,0.6,4.6,0.6c0.7,0,1.3,0,2,0c0.7,0,1.4,0,2.1,0c2.9,0.1,6.1,0.4,9.3,0.6l0.6,0.4
						c0,0,1.4,0.1,2.7,0.2c1.4,0.1,2.7,0.2,2.7,0.2c2.2,0.3-4.2-0.3-0.3,0.2l2.1-0.1c0.2,0.1,3.8,0.3,6.1,0.3c1.1,0,1.9,0.1,1.9,0.1
						c0,0-0.2,0-0.7,0.1c-0.5,0-1.2,0.1-2.4,0.1c0,0,1.3,0,3.3,0c1.9,0,4.5,0.1,7,0.3c2.5,0.2,5.1,0.5,7,0.7
						c1.9,0.3,3.2,0.4,3.2,0.4c4.5,0.7,2.7,0.1,7.7,0.9c1,0.3-1.8-0.2-1.4,0c3.7,0.6,6.6,1.2,9.1,1.8c2.5,0.6,4.6,1,6.7,1.5
						c2.1,0.5,4.2,0.9,6.6,1.5c2.4,0.6,5.1,1.3,7.9,2.8c0,0-0.2-0.1-0.5-0.2c-0.2-0.1-0.5-0.2-0.5-0.2c1,0.4,2.4,1.2,3.4,1.9
						c0.5,0.4,0.9,0.8,1.2,1c0.3,0.3,0.5,0.5,0.5,0.5c-0.4-0.7-0.9-1.1-1.6-1.5c-0.7-0.5-1.6-1-3.4-2c0.2-0.1,1.4,0.4,2.3,1
						c1,0.6,1.8,1.3,1.8,1.1c0.6,0.5,1,1,1.4,1.4c0.4,0.5,0.9,0.9,1.2,1.4c0.7,0.9,1.4,1.8,1.9,2.9c0.8,2,1.2,4.6,0.6,7.1
						c-0.5,2.5-1.7,4.8-2.6,6.4c-1,2.1-2,4.7-4.7,9.1c-2.2,3,0.3-0.8-2.6,3.3l-0.3,0.8c-2.4,3.4-2.1,2.8-2.1,2.6
						c-0.5,0.7-0.9,1.2-1.2,1.6c-0.2,0.2-0.3,0.4-0.4,0.6c-0.1,0.1-0.1,0.2-0.2,0.3l-0.1,0.1c0,0,0,0.1,0,0l0,0l0,0l0,0l1.4,1.4
						l-1.5-1.3c-0.4,0.6-0.9,1.1-1.4,2c-0.5,0.9-1.2,2-1.7,4.2c0,0,0.1-1,0.4-1.9c0.3-0.9,0.7-1.8,0.7-1.8c-1.2,2.2-1.5,4.2-1.3,6.3
						c0.1,1,0.4,2.1,1,3.4c0.6,1.3,1.9,2.6,3.6,3.4c-0.1,0-0.8-0.3-1.7-1c-0.9-0.7-1.8-1.9-2.2-2.9c0.4,1,1,1.9,1.7,2.6
						c0.7,0.7,1.4,1.1,2.1,1.4c1.4,0.6,2.7,0.8,3.7,0.9c-0.3,0-1.7-0.3-2.6-0.7c-1-0.4-1.5-0.8-0.3-0.3c1.7,0.7,3.5,0.8,5.1,0.7
						c1.6-0.2,3.1-0.6,4.2-0.9c0,0-0.8,0.4-1.7,0.6c-0.9,0.3-1.8,0.4-1.8,0.4c1.7-0.3,2.7-0.7,3.5-1c0.5-0.2,0.4-0.2,0.6-0.2
						c0.2-0.1,0.4-0.1,0.7-0.2c0.9-0.2,1.9-0.4,5.3-1.1c-0.4,0.1-0.2,0.1-0.3,0.2c2.1-0.6,4.6-1.3,7.4-2.2c2.7-0.9,5.5-1.9,8.6-3
						l-1.1,0.5c2.4-1,3.7-1.6,5-2.1c-3.5,1.2-2.6,0.8-2.9,0.7c4.7-1.4,6.9-2.9,14.3-5.9c-0.1,0.2-1.8,1-3.9,1.8
						c-2.4,1.3-2.6,1.7-7.1,3.6c2.8-1.1,6.1-2.5,5.5-2.1l0.8-0.6c1.7-0.7,3-1.3,4.3-1.8c0.6-0.5-3.5,1.2,0.3-0.6
						c4.4-2,2.5-0.7,3.1-1.2c6-2.8,2.4-1.4,8.1-4c-0.6,0.3-1.7,0.9-2.2,1.1c4.2-1.8,10-4.9,11.4-5.1c-0.6,0.4-0.6,0.5-2.2,1.2l0-0.1
						c-4.4,2.4,3.7-1.9,2.5-0.9c-0.4,0,5.3-2.8,7.9-4l-0.9,0.2c8.3-4.8-0.3,0.6,8.2-3.6c5.3-2.8-2.1,0.9,1.2-0.8
						c1.8-0.9,3.1-1.4,4.6-2.1c1.4-0.7,3.2-1.4,5.9-2.9c0.8-0.4,1.9-1,2.9-1.5c1-0.5,1.8-1,2-1c1.5-1.1,3.8-2.9,5.7-4.9
						c1.9-2,3.4-3.8,3.9-4.8c-1,1.3-1.8,2.2-2.5,2.9c-0.7,0.8-1.2,1.4-1.8,2.1c-1.2,1.3-2.6,2.7-5.8,4.7c0,0,0.4-0.3,0.8-0.7
						c0.4-0.4,0.8-0.7,0.8-0.7c2.1-1.6,4.3-3.7,6-5.8c1.7-2,3.3-4.2,4.3-5.7c-0.4,0.6-0.7,0.9-0.5,0.4c1.9-3.3,2.6-5.7,3-8.2
						c0.1-1.2,0.2-2.5,0.1-3.9c-0.1-1.4-0.4-3-1-4.7c-0.1-0.5,0.3,0.3,0.7,1.6c0.4,1.4,0.6,3.3,0.6,4.9c0.1-2.5-0.1-3.8-0.6-5.4
						c-0.5-1.6-1.2-3.5-3.3-6.5c0-0.2,0.7,0.8,1.4,2c0.7,1.2,1.4,2.7,1.6,3.1c0,0-0.2-0.5-0.5-1.2c-0.3-0.7-0.8-1.7-1.4-2.5
						c-0.6-0.9-1.2-1.7-1.6-2.3c-0.4-0.6-0.7-1-0.7-1c0,0,0,0,0,0c-0.5-0.3-1.4-1.6-2.8-3.1c-1.4-1.5-3.2-3.2-5.2-4.6
						c-2.4-1.7-4.4-2.8-6.1-3.6c-1.7-0.7-3.1-1.3-4.3-1.7c-2.5-0.8-4.4-1.5-7.3-2.4c-1.5-0.6-2-0.9-1.3-0.7c2.5,1.1,2.1,0.8,3.1,1
						c-3.6-1.3-7.7-2.9-5.7-2.4c-5.8-1.7,2,0.8-1.5-0.2c0,0-0.5-0.2-1.2-0.4c-0.7-0.2-1.7-0.5-2.7-0.8c-1-0.3-2-0.6-2.7-0.8
						c-0.7-0.2-1.2-0.3-1.2-0.3c0.9,0.4,3.7,1.2-0.5,0.2c-3.5-0.9-5.1-1.3-9.7-2.3c0.7,0.1-1.4-0.6,2,0.2c-2.2-0.6-5.6-1.3-7-1.4
						c2.5,0.6,0.4,0.2-1.8-0.2c-2.2-0.4-4.6-0.7-2.8-0.3c0,0-1.3-0.2-2.5-0.5c-1.3-0.2-2.5-0.5-2.5-0.5c1.2,0.2,1.3,0.1,3,0.4
						c-1.4-0.5-4.1-0.6-5.9-0.8c-0.1,0-0.2,0-0.4-0.1c-0.1,0-0.4-0.1-0.6-0.1l0.2,0c-2.1-0.3-5.6-0.7-6-0.8
						c-1.6-0.1-5.5-0.6-6.2-0.8c-2.4-0.2-0.2,0.1-0.9,0.1l-8.1-0.8c-0.4-0.2-1.1-0.6,0.2-0.6c-3.1-0.2-1.1,0.3-5.8-0.2
						c2.7,0-6.1-0.8-2.2-0.7c-2.6-0.4-10.2-1.1-14.4-1.4c-2.6,0,4.5,0.5,4.2,0.7c-11.7-1-12.5-0.4-21-1.3l2.2,0.3
						c-5.4-0.4-4.8-0.4-7.9-0.5c0.8-0.1-0.7-0.4-3.5-0.9c-2.7-0.5-6.9-1.2-11.3-1.6c-0.8,0,4.9,0.8,3.4,0.9l-5.8-0.6
						c-0.4-0.1,0.2,0,1,0c-2.6-0.2-5-0.6-7-0.9c-1.9-0.3-3.4-0.7-4.1-0.7c-0.7-0.2-1.3-0.4-2-0.6c-0.8-0.2-1.4-0.2-1.9-0.3
						c-0.5,0-1.1-0.1-1.4-0.2c0,0,0.3,0.1,0.8,0.1c0.5,0,1,0.1,1,0.1c-0.2,0-0.7,0.1-1.3,0.1c-0.1,0-0.3,0-0.4,0c-0.1,0-0.1,0-0.2,0
						c0,0,0,0-0.1,0l0,0l0,0c0,0,0,0.1,0,0.1c0,0.2-0.1,0.3-0.2,0.5c0,0.1-0.1,0.2-0.2,0.3c0,0-0.1,0,0,0.1c0,0,0-0.1,0.1-0.1
						c0,0,0.1,0,0.1,0.1c0.1,0,0.2,0.1,0.4,0.2c0.1,0,0.1,0.1,0.2,0.2l0.1,0.1l0,0c0,0,0,0,0.1-0.1c0.4-0.4,1.2-0.8,1.8-1.1
						c0.6-0.3,1.2-0.5,1.4-0.7c2.7-1.2,4.6-1.7,6.2-2.1c1.6-0.4,3-0.5,4.5-0.6c-0.5,0-1.4,0-1.6,0c-0.1,0,0-0.1,0.4-0.2
						c0.4-0.1,1-0.2,2.3-0.4c0,0.2,2.5-0.1,4.9-0.6c2.4-0.5,4.9-1,4.8-0.9c1.9-0.4,5.2-1,5.4-1.2l-0.3,0.3c0.4-0.5,7.2-2,12.4-3
						c-1.1,0.7,5.7-1.1,8.2-1c0.9-0.5,9.3-1.7,10.2-2.2c4.1-0.7,3.7-0.3,4.8-0.4l1.9-0.5c2.1-0.2,9.7-1.5,14.2-2.1l4.2-1l1.6-0.1
						c0.7-0.2,4.2-0.8,2-0.6l2.3-0.4c0.1-0.4,3.2-0.6,7.7-1.5c1.1-0.1,0.8,0-0.2,0.2c2.3-0.4,1.3,0,2.6-0.1
						c-1.6,0.2,8.1-1.9,1.9-1.1c-0.4-0.1,3.1-0.8,5.4-1.1l1.4,0.1l2.6-0.7c3.5-0.6,5-0.6,7.9-1c-2.9,0.5-6.4,1.6,1.1,0.4
						c-3.9,0.6-5.8,1.1-7.9,1.5c1.6-0.2,2.3-0.3-0.1,0.2c5.8-1,1.9-0.5,7.7-1.4c-0.3,0.3,1.4,0.1,6.4-0.5l-3.8,0.3
						c0.2-0.1,0.4-0.1,0.7-0.2c-1.4,0.2-1.8,0.2-2.2,0.1c1.1-0.2,6.7-1.3,7.7-1.2c-5.9,0.3,10.2-1.7,6.4-1.4
						c0.7-0.2,4.7-0.7,5.2-0.6c-4.8,0.8,3.7-0.2,2.9,0.1c1.8-0.3-3.9,0.3-1.4-0.1c2.9-0.4,5-0.5,6.7-0.6l-1.2,0.2l4.5-0.4
						c0.7-0.2-4.4,0.3-0.2-0.3c1.1-0.1,5.2-0.6,5.1-0.5c-1.9,0.4-0.5,0.5-4,0.9c2.9-0.4,12.2-1.4,8.4-1.2l3.5-0.4
						c-2.2,0.1-8.4,0.6-1.4-0.2l-0.1,0.1l4.9-0.7l2.1-0.1c-0.1-0.1,0.7-0.2,2.5-0.4c0.5,0,2.2-0.1,2.1,0c5.2-0.5,4.8-0.6,5.5-0.7
						c2.9-0.3,4-0.3,2.7,0c4-0.3,11-0.8,13.8-0.8c5.4-0.4-1.1,0,2-0.4c4.7,0.2,17.8-0.8,26.6-1c-2.4-0.3,2.4-0.1,4-0.5
						c-1.9,0.2,8.4,0.2,0.7,0.4l4.7-0.1c3.2,0.2-7.8,0.3-2.9,0.5c5.3-0.1,8.7-0.6,14.9-0.4c-2.1,0.3,4.8-0.1,3.2,0.2
						c-1.3,0.1-3,0.1-4.8,0.1l1.1,0.1c11.5,0.1,3.3-0.3,9.4-0.5c7,0.1,5.5,0.3,6,0.5c1.1,0.1,4.6,0.1,6.5,0.1
						c-4.3,0.1-7.9-0.4-6-0.5c3.1,0.4,10.4,0.3,12.4,0.2c-10-0.7-7-0.2-16.4-0.8c-1.3,0.1-1.1,0.4-6.8,0.2c3.6-0.1-0.2-0.2-1.2-0.2
						c1.1,0.2-3.9,0.1-5.7,0.1c-1.6-0.1,3.4-0.4-2.3-0.5l-1.1,0.4c-2.2,0,1-0.3-3.8-0.2c2.6-0.2-0.8-0.3,5.7-0.4
						c-7.7-0.3-11.9,0.3-17.9,0.6c0.6,0,0.7-0.1,1.3-0.1c-1.3,0.1-3.6,0.2-5.4,0.3c-4,0,3.1-0.3,2.1-0.4c0,0-1.6,0-3.2,0.1
						c-1.6,0.1-3.2,0.1-3.2,0.1c-0.1,0-0.2,0-0.2,0c-1.7,0.1-3.3,0.2-3.9,0.1c1.9-0.2,2.6-0.4,3.9-0.5l-6.7,0.6
						c0.7-0.2-5.6,0-0.8-0.3c0,0-2.5,0.1-5,0.3c-2.5,0.2-5,0.3-5,0.3l-0.9-0.2c-2.4,0.2-2.4,0.3,0.4,0.1c-1.7,0.1-5.5,0.4-8.6,0.7
						c-3.1,0.3-5.6,0.5-4.7,0.1c-7.8,0.9-10.6,1-20.1,2.1c3.6-0.5,1.5-0.4-0.5-0.2c-2,0.2-4,0.3-0.2-0.2c-4.5,0.4-5.4,0.7-9,1.2
						c-3.3,0.3-1.9-0.2,1.7-0.7l-4.2,0.6l0.1-0.1l-3.7,0.6c-3.9,0.3-0.9-0.2-4.9,0.3l-0.8,0.3l-2.7,0.2c1,0-1.3,0.3-4.2,0.7l0.1-0.1
						l-3.5,0.5c3.5-0.6-3.2,0.4-1.6,0c-3,0.4-3.1,0.4-8.6,1.2l1,0c-7.1,1.2-0.3-0.2-6.1,0.6l0.4,0.1c-8.3,1-14,2.4-20.1,3.2
						c3.5-0.6,2.6-0.7,2.5-0.6c-5.3,0.9-13.8,2.3-19.2,3.5c-2,0.1-2.5,0.1-8.1,0.9c-4.1,0.7-4.7,0.8-6,1.2c-3.9,0.6-11.3,2-11.5,1.8
						c-0.9,0.3-3.5,0.6-5.7,1.1l-0.5,0l0.4,0.1c-3.5,0.4-6.4,0.9-9.4,1.5c-3,0.6-5.9,1.3-9.4,1.9l1.2-0.3l-2.9,0.7
						c-0.5,0,0.7-0.3,0.8-0.4c0,0-3.4,0.7-6.8,1.5c-3.4,0.7-6.8,1.3-6.8,1.3l2.7-0.4c-2.9,0.6-4.8,1.2-8.1,1.5
						c0.8-0.1,1.1-0.2,1.3-0.3c0.2-0.1,0.3-0.1,0.2-0.1c-0.1,0-0.3,0-0.7,0.1c-0.2,0-0.3,0-0.5,0.1c-0.2,0-0.5,0.1-0.7,0.1
						c-2,0.3-4.8,1-5.3,1c0,0,0.7-0.2,1.5-0.4c0.7-0.2,1.5-0.4,1.5-0.4c-2.1,0.4-3.1,0.7-3.5,0.9c-0.5,0.2-0.4,0.2-0.2,0.2
						c-2.6,0.8-3.5,1.1-4.3,1.4c-0.4,0.1-0.8,0.3-1.4,0.5c-0.6,0.3-1.3,0.6-2.6,1.5c0,0,0.2-0.2,0.6-0.4c0.3-0.2,0.7-0.4,1.2-0.6
						c0.8-0.4,1.7-0.8,1.7-0.8c0.5-0.2,0.2,0-0.5,0.4c-0.4,0.2-0.8,0.4-1.3,0.7c-0.5,0.3-1.1,0.6-1.7,1.1c-0.1,0.1-0.2,0.1-0.3,0.3
						c-0.1,0.1-0.3,0.3-0.4,0.7c0,0.1-0.1,0.3-0.1,0.4l0,0.1l0,0l0,0.2l0,0l0,0c0,0.1,0,0.1,0.1,0.2c0,0.1,0.1,0.2,0.2,0.3
						c0.2,0.3,0.5,0.4,0.6,0.5c0.3,0.1,0.3,0.1,0.2,0.1c0,0-0.1,0-0.2-0.1c-0.1,0-0.2-0.1-0.4-0.2c-0.1-0.1-0.2-0.1-0.3-0.3
						c-0.1-0.1-0.1-0.2-0.2-0.3l-0.1-0.2l0-0.1l0,0l0,0l0-0.2l0,0l0-0.1l0,0l0-0.1c0-0.1,0-0.1,0-0.2c0.1-0.4,0.1-0.4,0.2-0.6
						c-0.1,0.1-0.1,0.2-0.2,0.4c-0.1,0.2-0.1,0.6-0.1,0.6c0,0.4,0.3,0.9,0.5,1c0.5,0.4,0.8,0.4,1,0.5c0.5,0.1,0.9,0.1,1.3,0.1
						c0.4,0,0.8,0,1.1,0c0.4,0,0.7,0,0.9,0.1c3.3,0.8,6.7,1.3,7.9,1.4c2.3,0.3,1.5,0.4,0.3,0.3c8.9,0.9,4,0.5,12.9,1.4l-0.2,0.1
						l3.1,0.3c0,0,1.1,0.2,2.2,0.4c1.1,0.2,2.2,0.4,2.2,0.4l-1.6-0.3c2.9,0.3,4.8,0.5,8.2,0.9l-1.4,0c8.3,0.7,9.5,1.2,17.4,1.7
						c0.5,0.1-0.7,0-1.3,0c7.3,0.4,5.5,0.8,12.8,1.1c-0.5,0,0.3,0.2,0,0.2l3.3,0.2l-0.3,0.2l2.7-0.1l2,0.4l1.3,0
						c3.5,0.8,8.6,0.9,13.4,1.8l-0.8-0.4c3.5,0.2,7.2,0.6,11.1,1l0.2-1.6l0,1.6l0,0l0,0l0,0l0,0l0,0l0.2,0l0.5,0.1l0.9,0.1
						c0.6,0.1,1.2,0.2,1.9,0.3c1.3,0.2,2.5,0.4,3.8,0.7c2.6,0.5,5.2,1,7.8,1.6c5.2,1.1,10.5,2.5,15.6,3.8l-0.3,0.1
						c0,0,1.5,0.4,3,0.7c0.7,0.2,1.5,0.4,2,0.5c0.5,0.2,0.9,0.3,0.9,0.3c3,1.2-1.9-0.4-1,0c3.1,0.9,3.8,1.1,4.6,1.3
						c0.4,0.1,0.8,0.2,1.6,0.5c0.8,0.2,1.9,0.6,3.6,1.3c3.5,1.6-1.3-0.4-3-0.9c1.7,0.5,3.5,1.3,5.4,2c0.9,0.4,1.9,0.8,2.8,1.2
						c1,0.4,1.9,0.8,2.8,1.3c3.5,1.8,6.5,4.2,8.1,5.9c0.1,0.1,0.3,0.2,0.2,0.1c0.8,0.8,1.7,1.7,2.5,2.6c0.8,1,1.7,2.1,2.4,3.2
						c1.5,2.2,2.5,4.6,2.8,6.9c-0.1-0.1-0.3-1.2-0.7-2.3c0.3,0.8,0.4,1.7,0.5,2.7c0,0.5,0.1,0.9,0.1,1.4c0,0.4,0,0.8,0,1.2
						c0,0,0-0.1,0-0.3c0-0.2,0-0.4,0-0.6c0-0.4-0.1-0.9-0.1-0.9c0.1,1.7-0.3,4.3-1.3,6.4c-0.9,2.1-2.1,3.8-2.4,4.1
						c0.3-0.3,0.5,0-1.7,2.6c-0.7,0.6-2.1,2.4-4.1,4.2c-1.9,1.9-4.5,3.7-6.8,5c0.3-0.2,1.2-0.8,2-1.3c0.8-0.5,1.3-0.9,0.9-0.6
						c-2.2,1.4-4.3,2.7-6.4,3.9l0.6-0.4l-11.6,5.9c-1.9,0.6-11,5.5-10.3,4.9c-4.2,2,3.6-1.6-1.7,1c-1.5,0.6-4.8,2.4-4.6,2.1l0.6-0.3
						l-3.7,1.8l2.2-1.3c-3.2,1.6-5.4,2.9-5.5,3.1c-3.1,1.3-7.4,3.4-8.8,3.8l1.1-0.5c-8.5,3.8-14.6,5.3-21.4,8.2
						c-0.5,0.2-0.5,0.1,0.6-0.3l-5.5,1.9l1.2-0.6c0,0-0.5,0.2-1.4,0.5c-0.8,0.3-1.9,0.7-3,1c-2.2,0.7-4.5,1.3-4.5,1.3l0.1-0.1
						c-1.6,0.3-3.3,0.7-5.2,1.1c-0.1,0-0.4,0.1-0.6,0.2l-0.5,0.2c-0.2,0.1-0.4,0.2-0.6,0.2c-0.4,0.1-0.8,0.2-1.2,0.3
						c-0.8,0.2-1.7,0.3-2.5,0.2c-1.6-0.1-3.1-0.8-3.7-1.8c-0.3-0.5-0.6-1.2-0.7-2c-0.1-0.8,0-1.4,0.2-2.2c0,0,0,0.2-0.1,0.4
						c0,0.2,0,0.4,0,0.4c0.1-0.9,0.5-1.7,0.8-2.4c0.4-0.7,0.8-1.2,1.3-1.7l-0.1,0.2l0.2-0.2l0.1-0.1l0.1-0.1l0.2-0.2
						c0.1-0.2,0.2-0.3,0.4-0.5c0.2-0.3,0.5-0.6,0.7-0.8c0.4-0.5,0.8-1,1.2-1.6c0.8-1.1,1.6-2.3,2.9-4.2c-0.1,0.2-0.2,0.4-0.4,0.6
						c0,0,0.8-1.3,1.6-2.5c0.8-1.3,1.6-2.6,1.6-2.6l-0.6,1.2c1.1-1.9,2.7-4.7,3.9-6.6c1.2-2,1.9-3.3,1.1-2c0.5-1.2,1.3-2.8,1.7-4.4
						c0.5-1.6,0.7-3,0.7-3.4c0.3-1.8,0.2-2.9,0.2-3.5c0-0.6,0-0.7,0-0.8c0-0.1,0,0,0.1-0.3c0-0.2,0-0.8-0.3-1.9
						c-0.7-2.7-1.5-4.1-2.5-5.6c-0.5-0.7-1.1-1.5-1.8-2.3c-0.8-0.9-1.7-1.9-3.2-3l0.2,0c-1.3-1-2.5-1.7-3.9-2.3
						c-1.3-0.6-2.8-1.2-4.9-1.9l1.2,0.4c-3.3-1-5.3-1.6-7.2-2.2c-1.8-0.6-3.5-1-6.1-1.5c-2.7-0.8-8-2-7.7-2.1c-2.1-0.4-4.1-0.7-6-1
						c-1.9-0.3-3.7-0.5-5.6-0.8c-3.7-0.5-7.4-1-11.6-1.3c-1.3-0.4-1.8-0.2-6.9-0.5l0.4,0.2c-1.5,0-3,0-4.5-0.1c-1.5,0-3-0.1-4.5-0.2
						c-3-0.2-6.2-0.6-9.4-0.9c-3.2-0.3-6.5-0.7-9.9-0.8l-2.5-0.1c-0.7,0-1.3-0.1-1.9-0.2c-0.6-0.1-1-0.3-1.3-0.5
						c-0.3-0.2-0.5-0.4-0.6-0.7l0.1-0.2c0,0-0.1-0.2-0.3-0.6c-0.1-0.4-0.1-0.8-0.1-0.8c0-0.6,0.1-1,0.4-1.5c0.2-0.5,0.6-0.9,1.1-1.4
						c0.2-0.2,0.6-0.5,0.9-0.8c0.3-0.3,0.7-0.6,1-0.8c0.7-0.5,1.4-1,2.1-1.5c1.5-1,3-1.9,4.7-2.6c0.8-0.4,1.6-0.7,2.4-1l0.6-0.2
						l0.7-0.2l1.4-0.4c1.9-0.6,3.7-1.2,5.5-1.9c1.8-0.7,3.5-1.6,5-2.3c1.5-0.7,2.9-1.2,4.3-1.7c1.4-0.5,2.8-0.9,4.1-1.2
						c3.4-1,8.6-2.5,14.2-3.4l-0.6,0.1c9.7-1.8,20.2-2.8,30.9-2.1c-0.7,0,0.4,0.1-0.8,0.2c2.5-0.1,6.3,0.4,8.5,0.7
						c0,0-0.7-0.1-1.3-0.2c-0.7-0.1-1.3-0.2-1.3-0.2c3,0.1,7.3,1,8.7,1.5c0,0,0.3,0,0.7,0.1c0.4,0.1,1,0.2,1.6,0.3
						c0.6,0.1,1.1,0.3,1.6,0.4c0.4,0.1,0.7,0.2,0.7,0.2c0.3,0.1,0.7,0.3,0.8,0.4c0,0,0.2,0,0.4,0.1c0.2,0.1,0.4,0.1,0.4,0.1
						s0.5,0.3,1.1,0.6c0.5,0.3,1,0.6,1,0.6c0.5,0.2,2,1,3.6,2.1c1.6,1,3,2.3,3.7,2.9c0.1,0.2,0.8,1,1.1,1.6c0.3,0.5,0.4,0.7-0.4-0.5
						c0,0,0.1,0.2,0.4,0.5c0.2,0.3,0.5,0.8,0.8,1.4c0.3,0.6,0.5,1.3,0.5,1.8c0,0.6-0.1,1.3-0.5,2.1c-0.7,1.6-2,3.5-2.9,4.8
						c-1,1.3-1.6,2.2-1.6,2.2l1.7-2.2c0.4-0.2-2.6,4.3-4.4,6.4c2-2.9,0-0.4-1.1,0.7c-1.4,1.9,1.4-1.5,0.7-0.5
						c-0.9,1.2-2.3,3-3.8,4.6c-1.4,1.6-2.9,2.9-3.5,3.4l1.2-1.3c-1.4,1.4-2.6,2.4-3.7,3.3c-1.2,0.9-2.4,1.7-3.9,3
						c-2.9,2.3-5.1,3.8-4.3,3.6c-4.3,3.2-1.8,1-3.2,2c-1,0.8-3,2.2-4.9,3.5c-1.9,1.3-3.7,2.4-4.1,2.6c-1.1,1-4.1,2.9-6.9,4.7
						c-2.8,1.8-5.5,3.4-5.9,3.8l-3.8,2.1c-0.1,0.2-0.7,0.8-3.7,2.7c-2.9,1.6-2.3,1-3.3,1.5L212,304c-3.3,1.9-6.9,3.9-10.6,5.9
						c-1.9,1-3.7,2-5.7,3.1c-2,1.1-4,2.2-6.1,3.2l0.2-0.1c-12,6.1-24.9,12.2-36.7,16.5c-2,0.8-4,1.6-6.2,2.4
						c-2.1,0.8-4.4,1.4-6.8,2.1c-4.8,1.4-9.8,2.9-14.6,4.5c-0.3,0.1-0.9,0.2-1.4,0.3c-0.5,0.1-1,0.2-1.5,0.3l1.1-0.3
						c0,0-0.7,0.1-1.6,0.3c-1,0.2-2.3,0.4-3.6,0.7c-1.3,0.2-2.6,0.5-3.6,0.6c-0.9,0.1-1.4,0.1-1.4,0.1s0.4,0,1,0
						c0.6-0.1,1.6-0.2,2.5-0.3c1.9-0.3,3.9-0.6,3.9-0.6c-2.3,0.5-4.2,1-6.2,1.2c-1.1,0.1-2.1,0.1-2.6-0.1c-0.3-0.1-0.6-0.3-1-0.6
						c-0.3-0.3-0.6-0.6-0.7-0.8c-0.1-0.2-0.1-0.4-0.1-0.5c0-0.2,0.1-0.4,0.3-0.7c0.8-1.1,1.6-2.2,2.5-3.3c1.7-2.3,3.5-4.7,5.4-7
						c0.9-1.2,1.9-2.3,2.9-3.4c0.5-0.6,1-1.1,1.5-1.7l0.7-0.8l0.6-0.6c2.2-1.8,4.3-3.7,6.5-5.5c7.1-6.4,5.2-3.8,12-9.8
						c-0.6,0.5-0.8,0.8-1.3,1.2c1.9-1.6,3.6-3,5.1-4.1c0.4-0.3,0.7-0.5,1.1-0.8c0.4-0.3,0.8-0.6,1.2-0.8c0.8-0.6,1.6-1.1,2.4-1.6
						c3.1-2.2,6.3-4.4,10.3-7.4c-0.7,1,5.3-3.8,4.7-3.1l0.6-0.6c1.9-1.2,6.1-4.3,5.5-3.8c0,0,0.8-0.7,1.7-1.4
						c0.8-0.7,1.7-1.5,1.7-1.5l0.4-0.1c2.3-1.8,5.8-4.8,9-7.8c0.8-0.8,1.5-1.5,2.3-2.2c0.7-0.8,1.4-1.6,2-2.3
						c1.2-1.6,1.9-3.1,2.3-3.9c0.7-2.1,1-4.7,0.4-7.2c-0.5-2.5-1.7-4.8-3.2-6.8c-0.7-1-1.6-2-2.4-2.9c-0.8-0.9-1.8-1.8-2.9-2.6
						c-2.2-1.6-4.5-2.8-6.9-3.7c-4.7-1.9-9.6-3.4-14.5-4.4c-4.9-1-9.8-1.6-14.3-2.1c-2.5-0.1-7.9-0.7-12.1-0.7c0,0-1.1-0.1-2.3-0.1
						c-1.1,0-2.3,0-2.3,0c-0.5,0-1,0.1-1.5,0.1c-0.5,0-1,0-1.5,0.1c-1,0-2,0-3,0c-2-0.1-4.1-0.3-6-0.6c0,0,0.2,0,0.5,0
						c-2.1-0.2-4.3-0.4-6.4-0.5c-1,0-1.7-0.1-2.3-0.2c-0.6-0.2-0.9-0.4-1.1-0.5c-0.2-0.3-0.3-0.9-0.2-1c0.1-0.2,0.3-0.5,0.7-0.7
						c0.8-0.4,1.6-0.6,1.1-0.3c0-0.1,0.1-0.1,0.4-0.3c0.3-0.1,0.7-0.3,1.1-0.5c0.9-0.4,2.1-0.8,3.2-1.3c2.3-0.9,4.5-1.7,4.5-1.7
						s0.8-0.4,2.5-1c1.6-0.7,3.9-1.5,7-2.6c6.3-2.1,15.4-5.1,26.4-8.8c5.5-1.8,11.5-3.7,17.9-5.5c3.3-0.9,6.6-1.7,10.1-2.6
						c1.7-0.5,3.5-0.9,5.3-1.4c0.9-0.2,1.8-0.5,2.7-0.7l1.4-0.4l0.7-0.2l0.2,0c0.1,0,0.2-0.1,0.3-0.1l0.4-0.1
						c7.2-2.4,14.5-5.1,22.1-8c1.9-0.7,3.8-1.4,5.7-2.2c0.9-0.4,1.9-0.7,2.9-1.1c1.2-0.4,2.1-0.9,3.1-1.4c3.9-2,7.5-4.5,10.9-7.3
						c1.7-1.4,3.3-2.9,4.8-4.6c0.8-0.8,1.5-1.7,2.2-2.5c0.7-0.9,1.5-1.9,2.1-3.1c0.6-1.2,1.2-2.7,1.3-4.3c0.1-1.6-0.3-3.4-1.1-4.7
						c-0.8-1.4-1.7-2.4-2.6-3.2c-0.9-0.9-1.9-1.6-2.9-2.3c-2-1.3-4.2-2.4-6.4-3.2c-1.1-0.4-2.2-0.7-3.4-1c-1.3-0.3-2.3-0.4-3.4-0.6
						c-4.2-0.7-8.5-1.2-12.7-1.7c-4.2-0.5-8.5-0.8-12.7-0.9c-1.1,0-2.1-0.1-3.2,0c-1.1,0-2.2,0.1-3.2,0.1c-2.1,0.1-4.2,0.2-6.2,0.4
						c-8.2,0.6-16.2,1.7-23.8,3c-1.9,0.3-3.8,0.7-5.6,1.1c-1.9,0.4-3.7,0.9-5.5,1.3c-3.6,0.9-7.1,1.7-10.5,2.5
						c-1.7,0.4-3.4,0.8-5,1.3c-1.7,0.5-3.3,0.9-4.9,1.4c-3.2,1-6.2,2-9.1,3.1c-5.8,2.1-10.9,4.5-15.4,7c-1.1,0.6-2.2,1.3-3.2,1.9
						c-1,0.6-2,1.4-2.9,2c-0.2,0.2-0.4,0.3-0.7,0.5c-0.2,0.2-0.4,0.4-0.6,0.6c-0.4,0.4-0.8,0.7-1.2,1.1c-0.8,0.7-1.5,1.5-2.1,2.4
						c-0.3,0.5-0.8,1.2-1.1,2.2c-0.1,0.5-0.3,1-0.3,1.6c0,0.5,0.1,1.1,0.2,1.5c0.2,0.9,0.6,1.5,0.8,1.7c0.2,0.3,0.2,0.2-0.1-0.4
						c0.6,1.2,1.4,2,2.1,2.6c0.8,0.6,1.5,0.9,2.1,1.2c1.3,0.4,2.1,0.4,2.6,0.3c-1.7,0-2.4-0.4-2.6-0.5c-0.2-0.1,0.1-0.1,0.4-0.1
						c0.3,0,0.5,0,0.4-0.1c-0.2-0.1-0.8-0.2-2.1-1.1c0,0,0.8,0.5,1.8,0.8c0.9,0.3,1.9,0.2,1.9,0.2c0.4-0.1-0.9,0.1-2.2-0.3
						c-1.3-0.4-2.3-1.2-1.8-1c0,0-1.1-0.5-1.1-0.5c-1.1-1.2-1.5-2.6-1.5-3.6c0-1.1,0.3-1.8,0.6-2.3c0.6-1.4,1.3-2.4,2.4-3.6
						c0.6-0.6,1.3-1.2,2.2-2c0.5-0.3,1-0.7,1.5-1.1c0.3-0.2,0.6-0.4,0.9-0.6c0.3-0.2,0.7-0.4,1-0.6c0,0-0.4,0.2-0.8,0.5
						c-0.2,0.1-0.4,0.3-0.5,0.4c-0.1,0.1-0.2,0.2-0.2,0.2c4.5-2.9,2.9-1.6,3.9-2.1c0,0-0.3,0.1-0.5,0.3c-0.3,0.2-0.5,0.3-0.5,0.3
						s0.2-0.1,0.6-0.3c0.4-0.2,0.9-0.4,1.4-0.7c0.5-0.2,1-0.5,1.4-0.7c0.4-0.2,0.6-0.3,0.6-0.3c-3.1,1.4-7.7,4.7-5.2,3.1
						c5.5-3.2-1.5,0.7,2.6-1.7c2.6-1.4,1.9-0.9,1.9-0.7c0,0,0.3-0.2,0.7-0.4c0.4-0.2,1-0.5,1.6-0.8c1.2-0.6,2.4-1.1,2.4-1.1
						c0,0.1-0.8,0.5-1.4,0.7c-0.5,0.3-0.8,0.4,0.2,0c0,0,1.5-0.7,3-1.4c1.5-0.7,3-1.3,3-1.3c0.7,0,2.3-0.7,4.2-1.5
						c1.9-0.7,4-1.5,5.5-1.8c-4.5,1.6,0.4,0-0.2,0.4c0,0,2.8-0.9,5.6-1.7c1.4-0.4,2.8-0.8,3.9-1.1c1.1-0.3,1.8-0.4,1.8-0.4
						c1.1-0.2-3,0.8-1.2,0.4c2.2-0.4,3.5-0.9,4.7-1.2c1-0.1,8.5-2,8.2-1.6c7.8-1.6,3.2-1.2,10.4-2.4c1,0-5.8,1.1-2.5,0.7
						c0,0,1.9-0.4,3.8-0.7c1.9-0.3,3.8-0.6,3.8-0.6c-0.7,0.2-1.4,0.5-4.3,0.9c10.2-1.6,18.2-2.2,25.9-2.5c1.9-0.1,3.8-0.1,5.8-0.1
						c1.9-0.1,3.8,0,5.8,0.1c4,0.2,8.2,0.6,12.9,1c2.6,0.5-1.9-0.1-3.8-0.1c6.8,0.5,11.5,1.4,16,2.2l0.8,0.2l0.4,0.1l0.3,0.1
						c0.5,0.1,1,0.3,1.5,0.4c1,0.3,2,0.7,3,1.2c2,0.9,4.1,2.1,6,3.8l0.2,0c0.7,0.6,1.2,1.3,1.6,1.9c0.3,0.6,0.5,1.2,0.4,1.9
						c-0.1,1.3-0.9,2.9-2.3,4.4c-1.4,1.6-2.8,3.2-4.4,4.6c-1.6,1.5-3.3,2.9-5.1,4.2c-1.8,1.3-3.7,2.5-5.6,3.6c-1,0.5-2,1.1-2.9,1.5
						l-0.1,0.1l0,0l0,0c0-0.1,0,0,0.2,0.6l0.5,1.5c-1.7-4.2-0.5-1.2-0.8-2.1l0,0l0,0l-0.1,0l-0.4,0.2l-0.8,0.3l-1.6,0.6
						c-4.4,1.7-8.7,3.3-13.1,4.8l2.1-0.7c-2.3,1-6.1,2.4-9,3.5c-0.5,0.1,1.9-1.1-3.1,0.8c1.1-0.3,3.2-1,2.6-0.7
						c-1.9,0.6-4,1.3-6.3,2.1c-0.5,0.2-1.1,0.4-1.7,0.5c-0.6,0.2-1.3,0.3-1.9,0.5c-1.3,0.3-2.6,0.7-4,1c-5.6,1.5-11.8,2.9-18.4,4.8
						c-6.6,1.9-13.4,4.2-20,6.4c-6.7,2.2-13.3,4.4-19.5,6.4c-1,0.4-2.1,0.7-3.2,1.1c-1,0.4-2.1,0.8-3.2,1.2
						c-2.1,0.8-4.2,1.7-6.2,2.6c-2,0.9-4.1,1.7-6.1,2.5l-0.8,0.3c-0.3,0.1-0.6,0.2-0.9,0.4c-0.7,0.3-1.3,0.7-2,1.2
						c-0.7,0.5-1.3,1.2-1.8,2.1c-0.5,0.9-0.7,2-0.7,2.9c0,1,0.2,1.9,0.6,2.8c0.4,0.9,1.1,1.7,1.8,2.3c1.5,1.2,3.1,1.5,4.5,1.7
						c1.5,0.1,2.4,0.1,3.5,0.2c1.1,0.1,2.2,0.2,3.3,0.3c2.2,0.2,4.5,0.5,6.9,0.7c1.2,0.1,2.4,0.1,3.6,0.1c0.6,0,1.2,0,1.8,0l1.7-0.1
						c4.4-0.2,8.8,0.2,13.3,0.6c2.2,0.2,4.5,0.5,6.7,0.7c2.2,0.3,4.4,0.6,6.5,1c4.3,0.8,8.5,1.8,12.5,3.2c4,1.4,7.9,3,10.5,5.5
						c-0.8-0.8-1.4-1.2-1.7-1.5c-0.3-0.3-0.4-0.3-0.2-0.3c0.3,0.1,1.5,0.8,2.7,2.1c3.3,3.8,4.9,7.5,4.1,10.8c-0.4,1.7-1.4,3.4-2.9,5
						c-0.8,0.8-1.7,1.7-2.6,2.6c-1,0.8-1.9,1.7-3,2.6c-7.3,6.6-15.1,12-22.7,17.3c-3.9,2.6-7.7,5.2-11.6,7.8c-2,1.5-3.8,2.9-5.6,4.4
						c-1.8,1.5-3.6,3-5.3,4.6l-0.4,0.1c-2.2,1.7-2.7,2.3-5,4.2l0-0.1c-2.2,1.8-4.6,3.8-6.9,5.7l-0.3,0.2l-0.2,0.2l-0.3,0.3l-0.6,0.6
						c-0.4,0.4-0.7,0.8-1.1,1.2c-0.7,0.8-1.3,1.5-1.9,2.2c-1.2,1.4-2.2,2.6-2.9,3.5l0,0.3c-2.6,3.3-1.5,1.6-4,5.1l0-0.2
						c0,0-0.7,1-1.4,2.1c-0.7,1-1.4,2.1-1.4,2.1c0-0.1-0.1,0-0.3,0.3c-0.3,0.4-0.7,0.9-1,1.8c-0.3,0.8-0.5,2.1-0.2,3.5
						c0.3,1.3,1.1,2.5,1.9,3.4c0.4,0.4,0.9,0.8,1.4,1.1c0.5,0.3,1.1,0.7,1.7,0.9c1.3,0.5,2.6,0.6,3.5,0.6c2-0.1,3.3-0.4,4.2-0.4
						c1.2-0.2,2.5-0.5,4.1-0.8c0.8-0.2,1.6-0.3,2.4-0.5c0.4-0.1,0.9-0.2,1.3-0.3c0.5-0.1,0.9-0.2,1.5-0.4c4.3-1.4,9.3-3,13.7-4.2
						c0.7-0.1,3.5-0.8,6.9-1.9c3.4-1.1,7.2-2.6,10.2-3.7c9.6-3.9,22.4-9.8,34.3-15.9l0.3-0.2c0.1,0,0,0,0.2-0.1l0.5-0.2l0.9-0.5
						c0.6-0.3,1.2-0.6,1.8-0.9c1.2-0.6,2.3-1.3,3.5-1.9l-0.4-0.1l3.6-2c0,0.1,0.5-0.2-0.1,0.2c2.9-1.3,8.2-4.8,11.1-6.3
						c-1.9,0.9-2.5,1.4-4.5,2.6c-3,1.6-0.3-0.2,3.7-2.4l-0.1,0.1l2.6-1.7c0.4,0,2.9-1.4,3.3-1.4c11.5-7.1,19.1-12.3,30.6-20.3
						c-1,1,8.1-5.9,6.1-4c6.7-5.2-1.3,0.6,1.6-1.9c1.9-1.5,3.8-3.1,4.2-3.3c-0.8,0.8,1.6-1.1,0.2,0.2c0,0,1.1-0.9,2.1-1.9
						c1.1-1,2.1-2,2.1-2c0.4-0.4-0.4,0.6-0.9,1c2.1-2.1,3.9-4.1,5.6-6.2c1.7-2,3.3-4.1,4.7-6.1c1.5-2,2.9-3.9,4.3-6.3
						c0.6-1.2,1.3-2.6,1.6-4.4c0.1-0.9,0.1-1.8-0.1-2.7c-0.2-0.9-0.4-1.7-0.8-2.4c-0.3-0.4,0.3,0.7,0.6,2.1c0.2,0.7,0.2,1.4,0.2,1.9
						c0,0.5-0.1,0.7-0.1,0.4c0-0.9-0.1-1.8-0.2-2.5c-0.2-0.7-0.4-1.3-0.7-1.9c-0.5-1.1-1-1.9-1.5-2.6c-1-1.4-1.8-2.3-2.7-3.2
						c-0.9-0.9-1.7-1.6-2.9-2.5c-1.2-0.9-2.8-2-5.2-3c0,0,0.5,0.2,1,0.4c0.5,0.2,1,0.4,1,0.4c-1.5-0.8-2.7-1.1-4.1-1.6
						c-1.4-0.5-3-1-5.6-1.7c-0.4-0.2,0.7,0,2.2,0.4c1.5,0.4,3.5,1.1,4.7,1.5c-1.7-0.8-4.9-1.8-7.3-2.3c-2.4-0.5-4-0.7-2.6-0.4
						c-2.1-0.4-3.6-0.6-4.8-0.8c-1.2-0.2-2.2-0.4-3.3-0.5c-0.1,0,4,0.5,1.5,0.4c-2.9-0.4-6.6-0.6-10.5-0.7c-3.8-0.1-7.9,0-11.4,0.3
						c0.1-0.1-0.4-0.1,0.2-0.2c-2.8,0.3-4.1,0.4-5.6,0.5C221.4,230.2,219.6,230.2,215.7,230.8z"/>
					<path d="M355.9,256.8c0,0,0.5,0.6,1,1.1c0.5,0.6,0.9,1.2,0.9,1.2c0,0,0.2,0,1,1.1c0,0-0.2-0.2-0.4-0.5c-0.3-0.3-0.6-0.7-1-1.2
						C356.6,257.6,355.9,256.8,355.9,256.8z"/>
					<path d="M264.8,332c-0.3,0.1-0.7,0.2-1,0.3C264.5,332.2,264.7,332.1,264.8,332z"/>
					<path d="M248.6,315.9c-1.3,1.8-0.1,0.3,0.6-0.6C249.3,315.2,249.2,315.2,248.6,315.9z"/>
					<path d="M284.2,233.2c0.5,0,0.8,0,0.7,0C284.3,233.1,284.1,233.1,284.2,233.2z"/>
					<path d="M302.6,203.1c-0.3,0-0.5,0.1-0.8,0.1C302,203.2,302.3,203.2,302.6,203.1z"/>
					<path d="M291.2,204.7c-0.6,0.1-1.3,0.2-2.3,0.4C289.9,204.9,290.6,204.8,291.2,204.7z"/>
					<path d="M333.8,244.1c0.7,0.2,1.5,0.5,2.1,0.7C334.7,244.4,334.1,244.2,333.8,244.1z"/>
					<path d="M286.5,205.5l-2.9,0.5c0,0,0,0,0,0.1L286.5,205.5z"/>
					<path d="M306.3,202.6c-1.1,0.2-2.6,0.4-3.6,0.6C304.1,203,305.2,202.8,306.3,202.6z"/>
					<path d="M208.1,225.7c0.1,0,0.2,0,0.3,0C210.7,225.9,209.3,225.8,208.1,225.7z"/>
					<path d="M274.1,208c-0.1,0-0.3,0-0.4,0.1l-0.8,0.2L274.1,208z"/>
					<path d="M318.7,200.8c-0.5,0.1-1,0.2-1.4,0.2c0.4-0.1,1-0.1,1.6-0.2C318.7,200.8,318.7,200.8,318.7,200.8z"/>
					<path d="M215.8,218.5c0.8-0.2,1.1-0.4,1.1-0.4C216,218.3,215.4,218.5,215.8,218.5z"/>
				</g>
			</g>
		</g>
	</g>
</g>
<g>
	<g>
		<g>
			<g>
				<g>
					<path d="M148.5,295.7c0,0,0.1,0,0.1,0C148.6,295.7,148.5,295.7,148.5,295.7z"/>
					<path d="M149.7,285.4l0,0.1C149.7,285.4,149.7,285.4,149.7,285.4z"/>
					<path d="M149.2,302C149.2,301.9,149.2,301.9,149.2,302c0,0.1,0,0.2,0,0.4L149.2,302z"/>
					<path d="M152.9,263l0,0.1C152.9,263.1,152.9,263.1,152.9,263z"/>
					<path d="M150.8,276.3c0,0,0-0.1,0-0.2C150.8,276.2,150.8,276.2,150.8,276.3z"/>
					<path d="M147.8,305.7l0.1-0.2C147.9,305.5,147.8,305.6,147.8,305.7z"/>
					<path d="M150.2,311.9C150.2,311.9,150.2,311.9,150.2,311.9C150.2,311.8,150.2,311.9,150.2,311.9z"/>
					<path d="M149.9,309.3c0,0-0.1-0.1-0.1-0.2C149.8,309.2,149.8,309.3,149.9,309.3z"/>
					<path d="M149.7,309L149.7,309C149.7,309.1,149.7,309,149.7,309z"/>
					<path d="M167.7,182.3c0.1-0.2,0-0.4,0-0.5L167.7,182.3z"/>
					<path d="M155.9,242.8L155.9,242.8C156,242.8,156,242.8,155.9,242.8z"/>
					<path d="M166.6,181.8l0.1-0.1C166.6,181.7,166.6,181.7,166.6,181.8z"/>
					<path d="M146.8,302.4c-0.2-0.2-0.1-0.6-0.2-0.5C146.6,302,146.6,302.3,146.8,302.4z"/>
					<path d="M151.4,237.7l0-0.1C151.4,237.6,151.4,237.6,151.4,237.7z"/>
					<path d="M166.6,181.8l-0.1,0.1c0,0,0.1,0,0.1,0C166.6,181.9,166.6,181.8,166.6,181.8z"/>
					<path d="M159.5,221.7L159.5,221.7C159.5,221.8,159.5,221.8,159.5,221.7L159.5,221.7z"/>
					<path d="M159.9,220.7c0,0.1,0,0.2,0,0.2C159.9,220.8,159.9,220.7,159.9,220.7z"/>
					<path d="M167.7,181.8l0-0.3C167.6,181.6,167.6,181.7,167.7,181.8z"/>
					<path d="M162.1,208.7c0,0,0,0.1,0,0.1C162.1,208.8,162.1,208.8,162.1,208.7z"/>
					<path d="M150.6,277.1C150.6,277.1,150.6,277.2,150.6,277.1C150.6,277.2,150.7,277.2,150.6,277.1z"/>
					<polygon points="147.9,268.3 147.9,268.3 147.9,268.3 					"/>
					<path d="M148,268.8c0-0.1,0-0.3-0.1-0.5C147.9,268.4,147.9,268.6,148,268.8z"/>
					<path d="M148.1,267.3C148.1,267.3,148.1,267.4,148.1,267.3C148.1,267.4,148.1,267.3,148.1,267.3z"/>
					<polygon points="146.8,276.3 146.8,276.3 146.8,276.3 					"/>
					<path d="M146.9,274.5c0,0,0.1-0.1,0.1-0.1C147,274.5,147,274.5,146.9,274.5z"/>
					<polygon points="148.3,262.8 148.3,262.8 148.3,262.8 					"/>
					<path d="M149.7,245.9c-0.2,1.7-0.2,3.9-0.5,5.6c0.2,0.4,0.2,0.9,0.2,1.5l-0.4,0l0.1,0.5c-0.1,0.2,0-0.4-0.2-0.1l0.2,0.2
						c-0.1,0-0.3,1.1-0.4,0.3l-0.3,1.7c-0.1,0.4,0.3,0.3,0.1,0.7c-0.1,0.1-0.1-0.2-0.2-0.1c-0.5,1.2,0.5,1.6,0.2,2.7l0-0.1
						c0.1,0.2,0,0.6,0.1,0.6c0.4-0.1-0.2-0.2,0.1-0.6c0.3,0.1,0.1,0.5,0.4,0.5c-0.2,0.3,0,0.4,0,0.7c-0.3,0.4-0.2,1-0.5,1.3
						c0.1,0.2,0.4,0.5,0.3,0.9c-0.3,0.3-0.2-0.1-0.4,0.3l0.2,0.1c-0.1,0.3-0.1,0.3-0.2,0.3c-0.1,0.4,0.2,0.3,0,0.8l-0.1-0.3
						c0,0.4,0,0.5-0.1,1c-0.1,0-0.1-0.2,0-0.4c-0.3,0.2,0.1,0.5,0,0.6c0.1,0,0.2-0.4,0.3-0.2c-0.1,0.2,0.2,0.5-0.1,0.7l-0.1-0.3
						c0.1,0.5,0.2,0.3,0.1,0.9c0,0-0.1,0-0.1,0c0.2,0.4-0.1,0.8-0.2,1.4l0-0.1c0,0.2,0.2,0.4,0.2,0.5c0.1-0.3,0.2-0.2,0.4-0.2
						c-0.4,0.4,0.3,0.7,0,1.3c-0.1,0-0.2-0.2-0.1-0.4c-0.3-0.3-0.6-0.3-0.7-0.7c0,0.3,0,0.6-0.1,0.5l0.3,0.1c0,0.2,0,0.3-0.1,0.4
						c0.2,0.1,0.3-0.3,0.4,0.1c0,0.4-0.3,0.2-0.2,0.2c0.1,0.6,0.3,0.3,0.1,0.8c0-0.1-0.1-0.2,0-0.2c-0.2,0.4-0.1,0.9-0.4,1
						c-0.1-0.1-0.2-0.1-0.1-0.2l0.1,0c-0.2-0.4,0,0.4-0.3,0.2c0.2,0,0.1,0.5,0,0.7l0.2,0c0.6,0.9-0.4-0.1-0.4,0.7
						c0.1,0.5,0.1-0.2,0.2,0.1c-0.1,0.3-0.3,0.4-0.2,0.9c-0.1,0.1-0.3,0.4-0.5,0.4c0.1,0.3-0.2,0.9,0,1.1c0.3-0.5-0.2-0.5,0.2-1.1
						l0.2,0.2c-0.1,0.4,0,1-0.1,1.2c0.1-0.1,0.1-0.1,0.2,0c0,0.6,0.2,0.8,0.1,1.4c-0.2,0.1-0.2-0.3-0.1-0.5
						c-0.2,0.3-0.1,0.4-0.2,0.9c-0.2,0,0.1-0.4-0.1-0.5l0,0.6c0,0,0,0,0,0c0.3,0.1-0.1,0.5,0,0.9c-0.1,0.9,0.3,1.1,0.5,1.6
						c-0.1,0.1-0.2,0.2-0.3,0.1c0.2-0.2,0-0.2,0-0.3c0,0.3-0.4,0.6-0.5,0.5c0,0.5,0.2-0.2,0.3,0.2l-0.1,0.7c0.2-0.1,0.2-0.3,0.3,0.1
						c0,0.3,0,0.4-0.1,0.8c-0.1-0.1-0.3,0.1-0.2-0.2c-0.1,0.2-0.1,0.5,0,0.6c0.2-0.4,0.1,0.7,0.4,0.4l-0.2,0.4c0-0.1-0.1-0.1,0-0.3
						c-0.3,0.1,0,0.4,0,0.5c-0.1,0.1-0.1,0.5-0.2,0.5c0.1,0.1,0,0.5-0.2,0.5c0,0.2,0.2,0,0.2,0.1l-0.1,0.7c-0.1,0-0.5,0-0.6-0.1
						c0.1,0.3,0.4,0.1,0.3,0.5c-0.2-0.2-0.3,0.5-0.5,0.1c-0.2,0.2-0.3,0.8-0.2,1.2c0.2,0.2,0.2-0.4,0.4-0.3c0,1,0.6,1.1,0.4,1.8
						l0.1-0.2c0.1,0.5,0.1,0.4,0.2,0.7c-0.3-0.1-0.8,0.4-0.8,1.2c0.1,0.1,0.3-0.4,0.5-0.2l0,0.5c0,0-0.1,0-0.1-0.1
						c0.1,0.4-0.4,0.8-0.1,0.9l-0.4,0.4l0.2-0.2c0.1,0.1,0.1,0.6,0.2,0.7c0.1,0.5,0,0.7-0.2,0.9c0.1-0.1,0.4-0.3,0.4,0.1
						c-0.4,0-0.2,0.8-0.5,0.8c0,0.1,0,0.2-0.1,0.3c0,0.1,0,0.2,0.1,0.2l-0.3,0c0.4,0.1,0.3,0.8,0.5,1.2c-0.5-0.1,0.1,0.5-0.4,0.8
						c0.4,0.1,0.2,0.8,0.5,0.8c0.1,0.3-0.3,0.4-0.4,0.5l0.2,0.1c-0.1,0.2-0.1,0.8-0.1,1.2l0.4,0.3l-0.1,0.2c0.1,0,0.2,0.3,0.3,0.1
						l0,0.2c0.3,0,0.1,0.3,0.3,0.6c0,0.1-0.1,0.1-0.2,0c0,0.2-0.2,0.1-0.2,0.3c0.1-0.1,0.7,0.6,0.8,0c0.1-0.1,0.3,0.2,0.3,0.4
						l-0.3,0.2l0.4,0.2c0.1,0.3-0.1,0.4-0.1,0.7c-0.1-0.2-0.7-0.4-0.5,0.2c-0.1-0.3-0.3-0.5-0.4-0.6c0,0.1,0,0.2-0.2,0
						c0.2,0.5,0.2,0.1,0.3,0.6c-0.3,0-0.3,0.2-0.3,0.6l0.1-0.4c0,0,0.1,0,0.1,0c0-0.1,0-0.2,0.1-0.2c0,0.1,0.4,0.5,0.3,0.6
						c0.3-0.6,0.5,0.8,0.7,0.4c0.1,0,0.2,0.4,0,0.4c-0.3-0.4-0.2,0.4-0.4,0.3c0.1,0.1,0.1-0.4,0.3-0.2c0.1,0.2-0.1,0.4-0.1,0.6
						l-0.1-0.1l0,0.4c0.1,0,0.2-0.4,0.3-0.1c0,0.1,0.1,0.4,0,0.4c-0.2-0.1-0.4,0-0.5-0.2c0.1,0.2,0.3,1,0.4,0.6l0,0.3
						c0.1-0.2,0.2-0.7,0.3-0.2l-0.1,0l0.3,0.4l-0.1,0.2c0.1,0,0.1,0,0.2,0.2c-0.1,0.1-0.1,0.2-0.2,0.2c0.1,0.4,0.2,0.4,0.3,0.4
						c0.1,0.2,0,0.3-0.1,0.3c0,0.3,0.2,0.9,0.1,1.2c0.2,0.4,0-0.1,0.3,0.1c-0.4,0.5,0.2,1.5,0.5,2.2c0.3-0.3,0.1,0.2,0.5,0.2
						c-0.2-0.1-0.1,0.8-0.4,0.2l0.2,0.4c-0.1,0.3-0.4-0.6-0.5-0.1c0.2,0.4,0.7,0.6,0.7,1.1c-0.3-0.1,0.2,0.4-0.1,0.3
						c-0.1-0.1-0.2-0.2-0.2-0.4l0,0.1c0.3,1,0.4,0.1,0.8,0.6c0.3,0.5,0,0.5-0.1,0.6c0,0.1,0.2,0.4,0.3,0.5c-0.3-0.3-0.1-0.7,0.1-0.6
						c-0.2,0.4,0.4,0.8,0.5,0.9c0-0.9-0.2-0.5-0.2-1.4c-0.1-0.1-0.4,0.1-0.5-0.4c0.3,0.2,0.1-0.1,0.2-0.2c-0.1,0.2-0.2-0.3-0.3-0.4
						c0.1-0.2,0.5,0.1,0.4-0.4l-0.4,0.1c0-0.2,0.3,0,0.1-0.4c0.3,0.1,0.3-0.2,0.5,0.3c0.1-0.7-0.5-0.9-0.8-1.3c0,0,0.1,0,0.1,0.1
						c-0.1-0.1-0.2-0.3-0.3-0.4c0-0.3,0.3,0.2,0.3,0.1l-0.2-0.5c0,0,0,0,0,0c-0.1-0.1-0.2-0.2-0.1-0.3c0.2,0.1,0.3,0.1,0.4,0.2
						l-0.4-0.5c0.1,0,0.1-0.5,0.3-0.1l-0.3-0.8l0.3-0.1c-0.1-0.2-0.1-0.2-0.1,0.1c0-0.3-0.7-1.1-0.2-1.1c-0.4-0.6-0.3-0.8-0.6-1.6
						c0.4,0.5,0.2-0.7,0.4-0.1c0-0.4-0.3-0.4-0.4-0.7c0.1-0.3,0.3-0.2,0.5,0l-0.2-0.3l0.1,0l-0.2-0.3c0.1-0.3,0.3-0.1,0.2-0.5
						l-0.3,0l0.1-0.2c-0.1,0.1-0.2-0.1-0.2-0.3l0.1,0l-0.1-0.3c0.2,0.3,0-0.3,0.2-0.2c0-0.2,0-0.3-0.2-0.7l-0.1,0.1
						c-0.2-0.6,0.2-0.1,0.2-0.5l-0.2,0.1c0.2-0.7-0.4-1.1-0.3-1.7c0.1,0.3,0.3,0.2,0.2,0.2c-0.1-0.4-0.2-1.1-0.5-1.5
						c0.2-0.2,0.3-0.3,0.4-0.7c-0.1-0.3-0.1-0.4-0.3-0.5c0.1-0.3-0.2-0.9,0-1c-0.2-0.1,0-0.3-0.2-0.5l0.1,0l-0.2,0
						c0.4-0.6-0.3-1,0-1.5l0.1,0.1l-0.1-0.2c0.1,0,0.1,0,0.2,0.1c0,0,0-0.1,0-0.1c0-0.1,0-0.2,0-0.3c0-0.3,0.1-0.6,0.1-0.6l-0.2,0.2
						c0-0.2-0.2-0.4,0-0.7c0.2,0.5,0-0.4,0.3-0.4l0.1,0.3c0-0.3,0-0.3-0.2-0.3c0-0.4,0.4-0.3,0.2-0.7l0,0.3
						c-0.1,0.1-0.3-0.1-0.2-0.3c0,0,0.1-0.2,0.1,0c0-0.4,0.1-0.9,0-1c0.1-0.2,0.2-0.1,0.2,0c-0.1-0.8,0.1-0.3,0-1.1l0.1,0l-0.1-0.3
						l0.3-0.3l-0.2,0.1c0-0.2-0.1-0.4,0-0.7l0.1,0.1c0-0.7,0.3-0.8,0.2-1.4c0,0,0.1,0.1,0.1,0.1c-0.2-0.6,0.3-0.4,0.1-1.1
						c0.1,0,0.1,0,0.2,0l-0.1-0.3l0.2,0l-0.3-0.3l0.2-0.1l-0.1-0.1c0.4-0.3,0.2-0.7,0.5-1.1l-0.3,0c-0.5-1.1,0.5-2.3,0.4-3.5l0.2,0
						l-0.2-0.5c0.2-0.3,0.2,0.2,0.3,0.1c-0.1-0.6-0.3-0.3-0.3-0.9c0.2-0.3,0.1,0.1,0.2,0.3c0-0.6-0.1-1.5,0.1-1.9c0,0-0.1,0-0.1,0
						c-0.1-0.4,0.1-0.9,0.1-1.3c0.1,0,0.1,0.1,0.1,0.2c0-0.2,0.1-0.4,0-0.5l0.2,0.2c0.1-0.3,0-1,0.2-1c-0.1,0-0.2,0-0.2-0.3
						c0.3-0.1,0-0.8,0.2-1.2c0.1,0.1,0,0.4,0.1,0.3c0.1-0.2,0-0.4-0.1-0.7l0.1,0.1l-0.1-1.1c0.3-0.1,0.1-1,0.3-0.9
						c0.1-0.4-0.2,0.3-0.2-0.2c0.2-0.1,0-0.4,0.2-0.4l0,0.1l0-0.3l0.2,0.2c0-0.3-0.2-0.5-0.4-0.6c0.2-0.3,0.1-0.7,0.3-0.8l0,0.1
						c0-0.8,0.7-1.2,0.5-1.9c0,0,0.1,0,0.1,0.1l0.1-0.5l0.1,0.1l-0.1-0.8l0.1,0c0.1-0.5,0.2-1.3,0.2-2l0,0.1
						c-0.1-0.8,0.2-0.7,0.2-1.2c0,0,0,0,0,0.1l0.1-0.5l0.1,0.1c-0.2-0.4,0.4-1,0.2-0.8c-0.1-0.2-0.2-0.6-0.3-0.7
						c0.1-0.5,0.2-0.1,0.3-0.4c0.1-0.4-0.1-0.5,0.1-1l0.1,0c0-0.2,0-0.4,0-0.7l0,0.1c-0.1-0.6,0.4-0.6,0-1.1
						c0.1-0.2,0.1-0.7,0.3-0.6c0-0.7,0-1.2,0-1.9c0.4-0.1,0-0.1,0.3-0.5l-0.2,0c0.1-1,0.7-2,0.8-3.1l0.2,0l-0.2-0.2
						c0.3-1.1,0.6-2.6,0.7-3.5c-0.1-0.3-0.2-0.8-0.1-1.3l0,0.1c0-0.8,0.1-1.7,0.3-2.6c0.1,0.1,0.1,0,0.2,0.1
						c-0.2-0.2,0.1-0.5,0.1-0.7l-0.2,0.2c-0.1-0.3,0.1-0.6,0.2-0.7l-0.1-0.4c0,0,0.1-0.1,0.1-0.1l-0.1-0.1l0.3-0.2
						c0-0.1,0-0.7-0.2-0.9c0.1,0,0.2-0.4,0.2-0.1l0.3-1.5l-0.1,0.2c-0.2,0-0.2-0.5-0.1-0.7c0.1,0.3,0.3,0.1,0.4,0
						c-0.1-0.2-0.2,0.1-0.3,0c-0.1-0.3-0.1-0.8,0-0.9l0.1,0.2c0-0.4,0.3-0.5,0.4-0.8c-0.1-0.3,0.1-0.5-0.3-0.5
						c0-0.4,0.2-0.1,0.3-0.3c-0.1-0.2,0.1-0.8,0.3-0.9c-0.4-0.3,0.4-1.1,0-1.3l0.3-0.3c-0.1,0-0.3-0.1-0.3-0.4
						c0.2-0.3,0.3-0.2,0.5-0.2l-0.4-0.2c0.7-1.5,0.7-3.6,1.4-5.3c0-0.8,0-1.8,0.2-2.7l0,0.1l0.3-0.9l-0.3,0.6c0-0.2-0.1-0.4,0-0.6
						c0.3-0.9,0.8-2.2,0.8-3.4c-0.3-0.9,0.5-0.4,0.3-1.2c0,0.1,0.1,0.1,0.1,0.2c0-0.8,0-1.3-0.1-2.1c0.4,0.2,0.1-0.5,0.3-0.4
						l-0.2-0.1c0.1-0.2,0.3-0.6,0.4-0.5l-0.2-0.4l0.2,0c0.1-0.5,0.1-1.5,0.6-1.7c0-1.2,0.4-3,0.8-4.5c-0.1-0.2,0-0.7,0-1l0.3-0.3
						c0-0.4-0.2-0.8,0-1.1c0,0,0,0,0,0c0-0.4,0.2-0.7,0.1-1c0.1-0.4,0.3-0.7,0.5-0.5c-0.4-0.1,0.2-0.8,0.2-0.8s1.3-4.8,2.6-10.1
						c1.3-5.4,2.6-11.3,2.3-13.9c-0.1-0.2-0.1-0.7-0.4-0.6c0-0.4,0.4-0.4,0.2-0.5c-0.2,0.4-0.4-0.3-0.8,0.1l0-0.3
						c-0.1-0.1,0,0.4-0.2,0.3l0.3,0.2c-0.1,0.2-0.2,0.3-0.4,0.4c0.1,0.3,0.5,0.5,0.1,1l0-0.1c-0.1,0.4-0.3,0.2-0.4,0.3l0-0.1
						l-0.3,0.3c0.2-0.2,0-0.8,0-0.5c-0.2,0.5,0.1-0.1,0.1,0.3c0,0.2-0.2,0.1-0.3,0.1l-0.1,0.4c-0.2-0.1,0.1-0.3-0.1-0.2l0,0.6
						c-0.4,0,0,0.6-0.4,0.8c0-0.4-0.1,0-0.3-0.1l-0.2,0.9c-0.1,0.1-0.1-0.3-0.1-0.1c-0.2,0.1,0,0.3,0,0.4c-0.1,0.1-0.2,0.7-0.4,0.6
						c-0.3,0.6,0.3,0.4,0,0.9c-0.2,0,0.1-0.5-0.1-0.3l-0.1,0.6c-0.1-0.1-0.2-0.2-0.1-0.4c-0.7,1.6-1.7,2.3-1.9,3.9
						c-0.2,0.2-0.1-0.2-0.2-0.4c0,1.2-0.8,1.5-1,2.4l0.2,0.1c-0.8,1.2-0.9,2.9-1.5,4.3l0.2-0.2c0.1,0.2,0,0.6,0.1,0.8
						c-0.1,0-0.3-0.3-0.3,0.2c0.1-0.1,0.2-0.2,0.2-0.2c-0.7,1.2-1.2,3.9-1.9,6c-0.5,2.9-1.5,5.9-2,8.8c0.1-0.4,0.4-0.2,0.3,0.1
						c-0.8,0.8-0.2,1.6-0.8,2.4c-0.1,1.7-1,3-0.7,4.7l-0.2,0c-0.1,0.2,0,0.3,0,0.5l-0.1,0c-0.2,0.6-0.1,1.3-0.3,1.6l0.2,0.1
						c0,0.3-0.2,0.1-0.1,0.5l-0.1,0l0.1,0.4c-0.4-0.1-0.2,0.9-0.4,1.2c0,0.4,0,1.3-0.2,2c-0.2,0.1-0.3,0.9-0.5,1.4
						c-0.1,1-0.3,2.5-0.6,3.8l0.2,0l0,0.3c-0.1,0-0.1,0-0.1,0c-0.3,0.2,0,0.8-0.3,1c0.2-0.1,0.1-0.2,0.1-0.4c0.2-0.3,0.4,0,0.2,0.4
						l-0.1,0l0.1,0.3c-0.2,0-0.3,0.2-0.5,0.2c-0.1,1.1,0.1,1.9-0.2,3c-0.2-0.2-0.1,0.8-0.4,0.5c0,0.7,0.3-0.1,0.5,0.3
						c0,0.2,0,0.4-0.1,0.4c-0.1-0.1-0.2,0.1-0.3,0l0,0.5c0,0-0.1-0.1-0.1-0.1c0.1,1-0.5,1.6-0.4,2.5c0.1,0.1,0.1-0.3,0.2-0.2
						c0.1,0.9-0.4,0.7-0.3,1.5l-0.2-0.2c0.1,0.3,0.2,0.4,0,0.8c-0.2,0-0.1-0.4-0.2-0.6c-0.1,0.3-0.1,1,0.1,0.8
						c0,0.4-0.2,0.4-0.3,0.6c0.1,0,0.2-0.3,0.3-0.1c-0.2,0.4-0.3,1.2-0.4,1.7c-0.1,0-0.1,0-0.2,0
						C150.2,245.3,149.7,245.2,149.7,245.9z"/>
					<path d="M146.7,276.6l0.1-0.2c0,0-0.1,0-0.1-0.1L146.7,276.6z"/>
					<path d="M148.2,265.6C148.1,265.6,148.1,265.5,148.2,265.6C148.1,265.6,148.1,265.6,148.2,265.6z"/>
					<path d="M148.1,262.9c0,0.2,0.1,0,0.2-0.1C148.3,262.8,148.2,262.8,148.1,262.9z"/>
					<path d="M146.7,282.9C146.6,282.8,146.6,282.8,146.7,282.9C146.6,282.9,146.6,282.9,146.7,282.9z"/>
					<path d="M146.4,300.5C146.4,300.4,146.4,300.4,146.4,300.5C146.4,300.4,146.4,300.4,146.4,300.5z"/>
					<path d="M146.6,299.4c0,0,0-0.1-0.1-0.2C146.5,299.3,146.6,299.4,146.6,299.4z"/>
					<path d="M147,278.7c0-0.1,0-0.1-0.1-0.2C146.9,278.6,147,278.6,147,278.7z"/>
					<path d="M146.5,299.1l0-0.2c0,0,0,0,0,0L146.5,299.1z"/>
					<path d="M146.5,300.8c0-0.1,0-0.2,0-0.3C146.4,300.6,146.4,300.7,146.5,300.8z"/>
					<path d="M146.4,289.2L146.4,289.2C146.3,289,146.3,289.1,146.4,289.2z"/>
					<polygon points="145.9,298.1 145.9,298 145.9,298 					"/>
					<path d="M146.6,301.8c0,0,0-0.1-0.1-0.1C146.5,301.7,146.5,301.8,146.6,301.8C146.5,301.8,146.5,301.8,146.6,301.8z"/>
					<path d="M145.7,292.8c0.1,0.1,0.1,0.1,0.2,0.1C145.9,292.8,145.9,292.8,145.7,292.8z"/>
				</g>
			</g>
		</g>
	</g>
</g>
</svg>
